<svg xmlns="http://www.w3.org/2000/svg" width="16" height="16" fill="currentColor" class="bi bi-rss" viewBox="0 0 16 16">
  <path d="M14 1a1 1 0 0 1 1 1v12a1 1 0 0 1-1 1H2a1 1 0 0 1-1-1V2a1 1 0 0 1 1-1h12zM2 0a2 2 0 0 0-2 2v12a2 2 0 0 0 2 2h12a2 2 0 0 0 2-2V2a2 2 0 0 0-2-2H2z"/>
  <path d="M5.5 12a1.5 1.5 0 1 1-3 0 1.5 1.5 0 0 1 3 0zm-3-8.5a1 1 0 0 1 1-1c5.523 0 10 4.477 10 10a1 1 0 1 1-2 0c0-4.418-3.582-8-8-8a1 1 0 0 1-1-1zm0 4a1 1 0 0 1 1-1 7 7 0 0 1 7 7 1 1 0 1 1-2 0 5 5 0 0 0-5-5 1 1 0 0 1-1-1z"/>
</svg>